<svg id="Capa_1" enable-background="new 0 0 511.66 511.66" height="512" viewBox="0 0 511.66 511.66" width="512" xmlns="http://www.w3.org/2000/svg"><g><g><path d="m255.83 196.53c-31.173 0-59.385 12.556-79.567-8.206-19.444-20.003-31.433-47.288-31.433-77.322 0-61.206 49.794-111 111-111s111 49.794 111 111c0 30.033-11.989 57.319-31.433 77.322-20.182 20.762-48.394 8.206-79.567 8.206z" fill="#fff4f4"/></g><path d="m255.83.002v196.528c31.173 0 59.385 12.556 79.567-8.206 19.444-20.003 31.433-47.288 31.433-77.322 0-61.206-49.794-111-111-111z" fill="#f6efea"/><g><g><g><path d="m421.709 374.822c-8.284 0-15-6.716-15-15v-106.759c0-6.564 4.269-12.366 10.536-14.32 6.266-1.951 13.076.394 16.807 5.797l47.188 68.33-.579-59.861c-.08-8.284 6.57-15.064 14.854-15.145.05-.001.1-.001.148-.001 8.217 0 14.917 6.62 14.996 14.854l1 103.354c.001.049.001.097.001.146 0 7.937-4.547 14.483-11.584 16.681-6.913 2.156-14.181-.505-18.522-6.78l-44.845-64.938v58.642c0 8.284-6.716 15-15 15z" fill="#23a7e9"/></g></g></g><g><g><g><path d="m26.185 374.83c-11.884 0-12.635-.128-13.712-.312-7.205-1.232-12.473-7.477-12.473-14.786v-106.869c0-8.284 6.716-15 15-15s15 6.716 15 15v91.954c7.086-.013 15.56-.047 22.37-.085h.086c8.245 0 14.952 6.66 14.998 14.916.046 8.284-6.632 15.038-14.916 15.084-12.253.068-20.605.098-26.353.098z" fill="#43e1ff"/></g></g></g><g><g><g><path d="m369.995 374.822c-8.284 0-15-6.716-15-15v-106.959c0-8.284 6.716-15 15-15s15 6.716 15 15v106.959c0 8.284-6.716 15-15 15z" fill="#23a7e9"/></g></g></g><g><g><g><path d="m280.647 374.822c-37.76 0-68.479-30.72-68.479-68.479s30.72-68.479 68.479-68.479c13.721 0 26.964 4.048 38.298 11.705 6.864 4.638 8.669 13.962 4.031 20.826-4.637 6.865-13.963 8.671-20.826 4.031-6.354-4.293-13.79-6.562-21.503-6.562-21.218 0-38.479 17.262-38.479 38.479s17.262 38.479 38.479 38.479c16.744 0 25.635-10.555 29.227-23.479h-15.057c-8.284 0-15-6.716-15-15s6.716-15 15-15h31.996c8.284 0 15 6.716 15 15 0 40.319-25.152 68.479-61.166 68.479z" fill="#43e1ff"/></g></g></g><g><g><path d="m133.685 374.822c-37.76 0-68.479-30.72-68.479-68.479s30.72-68.479 68.479-68.479 68.479 30.72 68.479 68.479-30.72 68.479-68.479 68.479zm0-106.959c-21.218 0-38.479 17.262-38.479 38.479s17.262 38.479 38.479 38.479 38.479-17.262 38.479-38.479-17.262-38.479-38.479-38.479z" fill="#43e1ff"/></g></g><path d="m255.83 123.222c-39.325 0-72.103 27.969-79.561 65.097 20.182 20.762 48.389 33.684 79.561 33.684s59.38-12.922 79.562-33.684c-7.459-37.128-40.237-65.097-79.562-65.097z" fill="#b760ea"/><path d="m255.83 123.222v98.781c31.173 0 59.38-12.922 79.562-33.684-7.459-37.128-40.237-65.097-79.562-65.097z" fill="#a24bdb"/><g><g fill="#23a7e9"><path d="m326.813 291.342h-31.996c-8.284 0-15 6.716-15 15s6.716 15 15 15h15.057c-3.592 12.925-12.482 23.479-29.227 23.479-9.449 0-18.113-3.423-24.817-9.094v34.442c7.698 3.004 16.069 4.653 24.817 4.653 36.014 0 61.166-28.16 61.166-68.479 0-8.285-6.715-15.001-15-15.001z"/><path d="m255.83 276.957c6.705-5.671 15.369-9.094 24.817-9.094 7.713 0 15.148 2.27 21.503 6.562 6.863 4.64 16.189 2.834 20.826-4.031 4.638-6.864 2.833-16.188-4.031-20.826-11.334-7.657-24.577-11.705-38.298-11.705-8.749 0-17.119 1.649-24.817 4.653z"/></g></g><circle cx="255.83" cy="97.636" fill="#ffdecf" r="45"/><path d="m255.83 52.636v90c24.813 0 45-20.187 45-45s-20.186-45-45-45z" fill="#ffcdbe"/><g fill="#00347b"><path d="m411.077 491.47-29.799 18.76c-4.334 2.729-10.06 1.427-12.788-2.907l-51.586-81.939 45.494-28.642 51.586 81.939c2.729 4.335 1.427 10.061-2.907 12.789z"/><path d="m289.19 346.336 2.113 121.181c.148 8.507 10.465 12.636 16.442 6.58l43.708-44.288 58.831-20.267c8.044-2.771 8.781-13.859 1.174-17.671l-108.36-54.291c-6.454-3.233-14.034 1.54-13.908 8.756z"/></g></g></svg>